<svg width="54" height="54" viewBox="0 0 54 54" fill="none" xmlns="http://www.w3.org/2000/svg">
<g clip-path="url(#clip0_4_15)">
<g clip-path="url(#clip1_4_15)">
<path d="M43.4532 0.000213623H10.547C4.72219 0.000213623 0.000209808 4.72219 0.000209808 10.547V43.4532C0.000209808 49.278 4.72219 54 10.547 54H43.4532C49.278 54 54 49.278 54 43.4532V10.547C54 4.72219 49.278 0.000213623 43.4532 0.000213623Z" fill="url(#paint0_linear_4_15)"/>
<path d="M27.256 30.7107L16.1494 27.2922V33.0015C16.1494 35.641 21.1235 37.781 27.2593 37.781C33.395 37.781 38.3697 35.641 38.3697 33.0015C38.3697 32.9804 38.3629 32.9595 38.3625 32.9397V27.2922L27.256 30.7107Z" fill="white"/>
<path d="M8.6402 23.3622L12.608 24.7817L12.9462 24.0574L14.4039 23.9336L14.6117 24.1497L13.3608 24.4464L13.1785 24.9861C13.1785 24.9861 10.3531 30.8922 10.768 33.7813C10.768 33.7813 12.5315 34.8332 14.2941 33.7813L14.7624 25.8817V25.2242L17.3862 24.6324L17.201 25.0891L15.2447 25.7252L16.1496 26.0484L27.2561 29.466L38.3626 26.0475L45.8719 23.3618L27.2561 16.2003L8.6402 23.3622Z" fill="white"/>
</g>
</g>
<defs>
<linearGradient id="paint0_linear_4_15" x1="27.0001" y1="0.000213623" x2="27.0001" y2="54" gradientUnits="userSpaceOnUse">
<stop stop-color="#FEAE07"/>
<stop offset="1" stop-color="#FD2959"/>
</linearGradient>
<clipPath id="clip0_4_15">
<rect width="54" height="54" fill="white"/>
</clipPath>
<clipPath id="clip1_4_15">
<rect width="54" height="54" fill="white"/>
</clipPath>
</defs>
</svg>
